<svg id="Layer_1" data-name="Layer 1" xmlns="http://www.w3.org/2000/svg" viewBox="0 0 1000 1000"><defs><style>.cls-1{fill:#33aee3;}.cls-2{fill:#2f449b;}.cls-3{fill:#ace1fa;}.cls-4{fill:#9ed0ea;}</style></defs><title>Artboard 1</title><path class="cls-1" d="M800.43,906.92c5.13.23,10.12,1,14.55,3.88,7.54,4.94,11.59,11.94,11.72,20.91.08,6.33.79,12.73-.63,19A24.28,24.28,0,0,1,802.34,970c-1.41,0-2.83,0-4.24,0q-298.19,0-596.38,0c-3.37,0-6.75.16-10.11-.72a24.82,24.82,0,0,1-18.49-23.17c-.11-4.81-.07-9.62,0-14.43a24.84,24.84,0,0,1,23.35-24.57l3-.2,30.17,0q24.72,0,49.43.09a9.6,9.6,0,0,0,1.66-.28c1.94.58,3.94.31,5.91.31q214.55,0,429.1,0c1.69,0,3.39-.09,5.08-.13q24.74.35,49.47,0Z"/><path class="cls-1" d="M200.74,93c-3.52-.11-7,0-10.48-1.17A24.94,24.94,0,0,1,173.1,68.41c0-4.53,0-9.06,0-13.58A24.69,24.69,0,0,1,197.89,30c1.14,0,2.27,0,3.4,0q299.27,0,598.53,0c5.81,0,11.27.88,16.08,4.32,6.88,4.92,10.61,11.61,10.85,20.11.12,4.38-.07,8.77,0,13.16.34,14.06-11.61,25.89-25.15,25.34-.85,0-1.7,0-2.54.06q-15.18-.4-30.35,0c-2,0-4-.06-5.94-.06H237c-2,0-4,0-5.93.06Q215.9,92.58,200.74,93Z"/><path class="cls-2" d="M768.75,93q15.16-.37,30.35,0a349.22,349.22,0,0,1,12.64,43.51,322.08,322.08,0,0,1,6.82,84.7c-2.27,43.21-12.54,84.37-31.79,123.08Q732.92,452.54,621.32,499.58l-4.45,1.89c1,1.63,2.63,1.75,4,2.3q95.55,39.9,150.55,127.61a311.26,311.26,0,0,1,43.77,118,318.7,318.7,0,0,1,3,74.43,314.35,314.35,0,0,1-17.36,81.86c-.15.4-.22.82-.33,1.23l-30.18,0c.42-1.19.83-2.4,1.28-3.59a290.84,290.84,0,0,0-191-383.62c-5.28-1.53-10.66-2.75-16-4.16-8.58-2.27-13.15-10.75-10-18.83,2.08-5.35,6.32-7.88,11.81-9.18,54.32-12.91,101.38-39,140.48-78.87,50.09-51,77.85-112.48,83.26-183.78a283.7,283.7,0,0,0-8.72-94.19A362.82,362.82,0,0,0,768.75,93Z"/><path class="cls-2" d="M200.74,93q15.16-.37,30.34,0c-.34.93-.64,1.87-1,2.79A290.44,290.44,0,0,0,209.15,210.5a287,287,0,0,0,8.34,63.79,291.31,291.31,0,0,0,198,208.45c6.36,1.93,12.78,3.58,19.24,5.13,9.12,2.18,13.89,11,10.49,19.22-2,5-6,7.53-11.18,8.76-54.47,12.9-101.82,38.9-140.9,78.95-56.87,58.28-84.8,128.5-84,210A280.66,280.66,0,0,0,217,866.54,344,344,0,0,0,229.59,907l-30.17,0a321.87,321.87,0,0,1-18.09-125.48c1.51-26.82,5.88-53.13,14.35-78.6,31.18-93.65,92.42-159.79,183-198.91,1.16-.5,2.35-1,3.51-1.48.24-.1.41-.36.75-.66-1.1-1.23-2.65-1.5-4-2.05A319.46,319.46,0,0,1,188.6,274.88,319.41,319.41,0,0,1,200,95.38C200.27,94.59,200.49,93.76,200.74,93Z"/><path class="cls-3" d="M280.68,906.77a5.57,5.57,0,0,1,1.39-3,238.93,238.93,0,0,1,28.74-31.07,270.82,270.82,0,0,1,50.53-36.05,300.06,300.06,0,0,1,65.36-26.5c11-3.07,22.18-5.21,33.39-7.27,5-.91,10-1.35,15.07-1.79,2-.17,2.5-.94,2.81-2.82,1-6.1,1.74-12.24,2.46-18.38s1.6-12.55,2.33-18.83c.41-3.49.67-7,.82-10.51.27-6.2.86-12.39,1.25-18.57.5-7.9.13-15.83.82-23.68,1.28-14.41.77-28.83.45-43.21-.18-7.89-.13-15.82-.73-23.68-.7-9.14-.82-18.31-1.71-27.41-1.05-10.63-1.9-21.29-3-31.91-.9-8.39-1.92-16.77-2.9-25.15-1.05-8.92-2.39-17.82-3.83-26.7s-2.93-17.75-4.45-26.62c-1.87-10.81-4-21.58-6.22-32.31-1-4.82-2.22-9.6-3.19-14.42-.6-2.94-1.9-4.4-5.16-5a229.77,229.77,0,0,1-48.34-15.11,259.57,259.57,0,0,1-42.42-22.95,270.49,270.49,0,0,1-33.61-27,255.71,255.71,0,0,1-39.16-47,252.77,252.77,0,0,1-25.76-51.86c-2.35-6.51-4.45-13.08-6.2-19.76-.67-2.54-.2-3.32,2.34-3.72,5.83-.91,11.67-1.72,17.51-2.57,1.9,1.45,4.16.95,6.12.63,7.53-1.22,15.15-.95,22.71-1.46,11.84-.78,23.69.37,35.53.69,4.93.14,9.8.9,14.73,1.14,2.89.15,5.88.35,8.8.72,6,.77,11.95,1.64,17.92,2.42,7.24,1,14.49,1.75,21.71,2.8,6.38.92,12.72,2.14,19.09,3.15,7.76,1.23,15.54,2.31,23.29,3.6,9.27,1.54,18.47,3.55,27.77,4.79,12.1,1.61,24.08,4,36.22,5.36,8.9,1,17.71,2.87,26.61,4,10.57,1.34,21.18,2.55,31.81,3.37,6.86.53,13.78.14,20.68.85,5,.52,10.13-.44,15.16-.57,11.55-.31,23-1.19,34.47-2.61q12.35-1.53,24.54-3.76c14.92-2.72,29.66-6.37,44.43-9.84,10.93-2.56,21.84-5.23,33.09-6.19,1.83-.16,3.93-.24,5.59-1.47,4.61.63,4.77.94,3.52,5.27a244.51,244.51,0,0,1-21,49.88,253.61,253.61,0,0,1-24.75,36.86A243,243,0,0,1,688.94,382a250,250,0,0,1-30.18,25.86,287.4,287.4,0,0,1-32.37,20.07,249.73,249.73,0,0,1-61.7,22.92,178.39,178.39,0,0,1-27.88,4.6c-3.55.24-4.15.73-4.77,4.39-.91,5.41-1.67,10.84-2.37,16.27-.87,6.69-1.61,13.39-2.39,20.1-.42,3.63-.53,7.31-.77,11-.35,5.19-.83,10.4-1.17,15.6-.59,8.71-.33,17.47-1.55,26.15a8.91,8.91,0,0,0,0,1.27c-.09,19.92-1.21,39.83-1,59.77.27,24-.22,48.11.28,72.16.24,11.57.13,23.18.88,34.71.5,7.63.05,15.27.77,22.84.69,7.2.19,14.42.9,21.56.56,5.65.16,11.31.79,16.9s.62,11,.79,16.47c0,.83.46,1.66.46,2.48,0,2.55,1.69,3.33,3.73,3.74,4.55.91,9.12,1.77,13.67,2.67,12.58,2.48,25,5.65,37.3,9.25A383.15,383.15,0,0,1,621.9,826.5a304.33,304.33,0,0,1,33.47,16.34A216.82,216.82,0,0,1,685.1,863c14.15,11.49,26.41,24.64,34.58,41.18.44.88.73,1.83,1.09,2.75-1.69,0-3.39.13-5.08.13q-214.56,0-429.1,0C284.62,907.08,282.62,907.35,280.68,906.77Z"/><path class="cls-4" d="M749.51,269.52c-1.66,1.23-3.76,1.31-5.59,1.47-11.25,1-22.16,3.63-33.09,6.19-14.77,3.47-29.51,7.12-44.43,9.84q-12.2,2.22-24.54,3.76c-11.46,1.42-22.92,2.3-34.47,2.61-5,.13-10.14,1.09-15.16.57-6.9-.71-13.82-.32-20.68-.85-10.63-.82-21.24-2-31.81-3.37-8.9-1.14-17.71-3-26.61-4C501,284.35,489,282,476.91,280.37c-9.3-1.24-18.5-3.25-27.77-4.79-7.75-1.29-15.53-2.37-23.29-3.6-6.37-1-12.71-2.23-19.09-3.15-7.22-1.05-14.47-1.85-21.71-2.8-6-.78-11.94-1.65-17.92-2.42-2.92-.37-5.91-.57-8.8-.72-4.93-.24-9.8-1-14.73-1.14-11.84-.32-23.69-1.47-35.53-.69-7.56.51-15.18.24-22.71,1.46-2,.32-4.22.82-6.12-.63,5.37-.11,10.52-1.75,15.86-2.2,6-.51,12-1.44,18-2.14,6.71-.79,13.42-1.49,20.12-2.3,3.5-.43,7-.62,10.53-.84,5.34-.34,10.68-.89,16-1.27,6-.43,12.13-.23,18.11-1.37a5.32,5.32,0,0,1,1.26-.1c9,.29,18.06-.72,27.08-1.12,11.44-.5,22.9-.09,34.31-.83,17.95-1.16,35.91-.82,53.83-.37,11.44.28,22.89.05,34.31.68,13.1.72,26.22,1,39.32,1.74,9.28.52,18.59.86,27.85,1.63,8.29.69,16.6,1,24.88,1.75,9.82.86,19.64,1.66,29.46,2.54,8.68.78,17.39,1.51,26,2.57,11,1.35,22.1,2.27,33.1,3.93,9.59,1.46,19.27,2.38,28.9,3.61C742,268.28,745.76,268.94,749.51,269.52Z"/></svg>